<svg width="62" height="48" viewBox="0 0 62 48" fill="none" xmlns="http://www.w3.org/2000/svg">
<path d="M5.65858 43.18C2.13942 39.4422 0.25 35.2499 0.25 28.4542C0.25 16.4958 8.64475 5.77777 20.8525 0.478516L23.9036 5.18668C12.509 11.3503 10.2813 19.3488 9.393 24.3918C11.2278 23.4419 13.6297 23.1105 15.9838 23.3292C22.1474 23.8998 27.0059 28.9598 27.0059 35.2499C27.0059 38.4215 25.746 41.4631 23.5034 43.7058C21.2608 45.9484 18.2191 47.2083 15.0476 47.2083C13.2937 47.1929 11.5603 46.8289 9.94842 46.1373C8.33652 45.4458 6.87829 44.4405 5.65858 43.18ZM39.8253 43.18C36.3061 39.4422 34.4167 35.2499 34.4167 28.4542C34.4167 16.4958 42.8114 5.77777 55.0192 0.478516L58.0703 5.18668C46.6757 11.3503 44.448 19.3488 43.5597 24.3918C45.3944 23.4419 47.7963 23.1105 50.1504 23.3292C56.3141 23.8998 61.1726 28.9598 61.1726 35.2499C61.1726 38.4215 59.9127 41.4631 57.6701 43.7058C55.4274 45.9484 52.3858 47.2083 49.2142 47.2083C47.4603 47.1929 45.727 46.8289 44.1151 46.1373C42.5032 45.4458 41.045 44.4405 39.8253 43.18Z" fill="black" fill-opacity="0.19"/>
</svg>
